<svg viewBox="0 0 1000 1289"><path d="m930.45 710.74 8.807-243.458-137.101-38.574-131.756 11.177-6.065 241.112-22.912-2.557-6.53-235.558-22.493 1.906-249.919 55.305 4.09 147.628-41.084-4.648-.465-151.903-270.7161 9.597 1.0688 112.121-39.1085-4.369-10.8751 101.455 983.8729 109.494 10.826-101.013zm-603.987 290.47-.674-220.757-43.594-4.648-225.1936 17.591 1.9287 203.072zm323-28.723-4.322-156.434-10.898-1.209-263.025 3.927 3.997 144.514zm276.038-125.227-97.249-10.828-168.774 33.299-3.229 127.945 264.465-17.614zm-916.4616-385.997 44.6623-3.811 296.7883-25.143 644.026-54.584-8.993-101.362-39.504 3.346 5.066-140.47h-.743l-121.277-126.9695-151.461 138.4485-3.835 151.996-42.756 3.602-4.787-172.724h-.767l-133.871-117.2095-138.402 124.6685h-.744l5.206 188.224-33.184 2.788-.581-197.518h-.767l-151.159-134.5913867-120.4396 137.1013867h-.7669l2.0914 218.036-52.8419 4.462zm905.3536 676.817h-.255c-5.229-12.16-17.591-19.29-36.622-" fill="#000"></path></svg>